0.11m3min_grf.mot
version=1
nRows=22
nColumns 19
inDegrees=yes
endheader
time	1_ground_force_vx	1_ground_force_vy	1_ground_force_vz	1_ground_force_px	1_ground_force_py	1_ground_force_pz	1_ground_torque_x	1_ground_torque_y	1_ground_torque_z	2_ground_force_vx	2_ground_force_vy	2_ground_force_vz	2_ground_force_px	2_ground_force_py	2_ground_force_pz	2_ground_torque_x	2_ground_torque_y	2_ground_torque_z
            3.751500	            0.001612	           -0.723619	            0.593035	           -0.233013	            0.005581	           -0.255695	           -0.025095	            0.000258	           -0.056305	           -3.635518	           -5.170686	            0.358581	           -0.232311	            0.006130	           -0.833667	            0.849557	           -1.260718	           -0.815438
            3.752000	           -0.044735	           -1.083176	            0.362323	           -0.233013	            0.005581	           -0.255695	           -0.108867	            0.046268	           -0.020246	           -3.871761	           -4.619087	            0.360652	           -0.232311	            0.006130	           -0.833667	            0.849607	           -1.261122	           -0.702337
            3.752500	           -0.548896	            0.177997	            0.506553	           -0.233013	            0.005581	           -0.255695	           -0.040552	            0.027649	           -0.060840	           -3.729862	           -4.987044	            0.406206	           -0.232311	            0.006130	           -0.833667	            0.830652	           -1.223110	           -0.777595
            3.753000	           -0.318490	           -1.986523	            0.817700	           -0.233013	            0.005581	           -0.255695	           -0.108987	           -0.046437	            0.005257	           -3.822253	           -5.355511	            0.358004	           -0.232311	            0.006130	           -0.833667	            0.811917	           -1.232765	           -0.739920
            3.753500	           -0.319160	           -0.183277	            0.687862	           -0.233013	            0.005581	           -0.255695	           -0.029325	           -0.083158	           -0.051557	           -3.586736	           -5.722460	            0.215806	           -0.232311	            0.006130	           -0.833667	            0.812080	           -1.279961	           -0.758939
            3.754000	           -0.136160	           -1.263852	            0.453490	           -0.233013	            0.005581	           -0.255695	           -0.131502	           -0.147725	           -0.062521	           -3.683820	           -4.801555	            0.078347	           -0.232311	            0.006130	           -0.833667	            0.736664	           -1.195427	           -0.683202
            3.754500	           -0.227295	           -0.543987	            0.731945	           -0.233013	            0.005581	           -0.255695	           -0.143732	           -0.009109	           -0.065831	           -3.729903	           -4.986709	            0.312350	           -0.232311	            0.006130	           -0.833667	            0.887128	           -1.260583	           -0.815454
            3.755000	           -0.366109	           -0.361585	            0.228644	           -0.233013	            0.005581	           -0.255695	           -0.065985	           -0.046229	           -0.053256	           -3.777376	           -4.803065	            0.406883	           -0.232311	            0.006130	           -0.833667	            0.793311	           -1.280163	           -0.721230
            3.755500	           -0.319565	           -1.083622	            0.454718	           -0.233013	            0.005581	           -0.255695	            0.018404	            0.083466	           -0.107323	           -3.774697	           -5.539825	            0.451183	           -0.232311	            0.006130	           -0.833667	            0.661618	           -1.233173	           -0.777556
            3.756000	           -0.365603	           -1.263503	            0.362347	           -0.233013	            0.005581	           -0.255695	           -0.089915	            0.018233	            0.003507	           -3.682327	           -5.171190	            0.452457	           -0.232311	            0.006130	           -0.833667	            0.792961	           -1.185569	           -0.739743
            3.756500	            0.046804	           -0.902696	            0.317013	           -0.233013	            0.005581	           -0.255695	            0.062134	           -0.046414	            0.058028	           -3.634812	           -5.355170	            0.451781	           -0.232311	            0.006130	           -0.833667	            0.868384	           -1.260987	           -0.721195
            3.757000	           -0.044345	           -0.723431	            0.547293	           -0.233013	            0.005581	           -0.255695	           -0.022888	           -0.129575	            0.035168	           -3.822876	           -5.171698	            0.452517	           -0.232311	            0.006130	           -0.833667	            0.755637	           -1.242757	           -0.645679
            3.757500	           -0.136178	           -0.542986	            0.502437	           -0.233013	            0.005581	           -0.255695	           -0.096341	           -0.083093	           -0.043558	           -3.636785	           -4.802892	            0.500680	           -0.232311	            0.006130	           -0.833667	            0.849590	           -1.260987	           -0.740037
            3.758000	           -0.227768	            0.177666	            0.597469	           -0.233013	            0.005581	           -0.255695	           -0.025550	           -0.046306	           -0.009915	           -3.823520	           -4.987717	            0.500102	           -0.232311	            0.006130	           -0.833667	            0.793242	           -1.261258	           -0.721163
            3.758500	           -0.319112	            0.177058	            0.735264	           -0.233013	            0.005581	           -0.255695	           -0.125344	            0.018422	           -0.032097	           -3.589997	           -4.802221	            0.359876	           -0.232311	            0.006130	           -0.833667	            0.774363	           -1.233035	           -0.702204
            3.759000	           -0.365312	           -0.362961	            0.549635	           -0.233013	            0.005581	           -0.255695	           -0.098645	            0.037289	           -0.128009	           -3.634209	           -5.538816	            0.310339	           -0.232311	            0.006130	           -0.833667	            0.774322	           -1.232699	           -0.796455
            3.759500	            0.047032	           -0.903089	            0.408725	           -0.233013	            0.005581	           -0.255695	            0.001947	           -0.009530	            0.077134	           -3.726600	           -5.907283	            0.262137	           -0.232311	            0.006130	           -0.833667	            0.830711	           -1.232764	           -0.721078
            3.760000	           -0.320005	           -0.542235	            0.319469	           -0.233013	            0.005581	           -0.255695	           -0.144937	           -0.147736	           -0.089130	           -4.197737	           -5.172549	            0.311892	           -0.232311	            0.006130	           -0.833667	            0.812062	           -1.270643	           -0.721205
            3.760500	           -0.319679	           -1.083425	            0.408862	           -0.233013	            0.005581	           -0.255695	           -0.092186	           -0.138479	           -0.089202	           -3.683635	           -4.803061	            0.500700	           -0.232311	            0.006130	           -0.833667	            0.812035	           -1.252074	           -0.626886
            3.761000	           -0.136211	           -0.362721	            0.503210	           -0.233013	            0.005581	           -0.255695	           -0.002657	           -0.009047	           -0.062278	           -3.446810	           -5.538139	            0.310259	           -0.232311	            0.006130	           -0.833667	            0.774269	           -1.204744	           -0.683252
            3.761500	           -0.181841	           -0.903723	            0.546861	           -0.233013	            0.005581	           -0.255695	            0.014506	           -0.027550	           -0.064335	           -3.728512	           -5.355508	            0.451820	           -0.232311	            0.006130	           -0.833667	            0.868367	           -1.260852	           -0.758895
            3.762000	           -0.044360	           -1.264031	            0.499118	           -0.233013	            0.005581	           -0.255695	           -0.114610	            0.009299	           -0.020384	           -3.729197	           -5.171192	            0.405549	           -0.232311	            0.006130	           -0.833667	            0.812104	           -1.280163	           -0.702388
